<?xml version="1.0" encoding="iso-8859-1"?>
<!-- Generator: Adobe Illustrator 19.0.0, SVG Export Plug-In . SVG Version: 6.00 Build 0)  -->
<svg version="1.1" id="Capa_1" xmlns="http://www.w3.org/2000/svg" xmlns:xlink="http://www.w3.org/1999/xlink" x="0px" y="0px"
	 viewBox="0 0 464 464" style="enable-background:new 0 0 464 464;" xml:space="preserve">
<path style="fill:#576177;" d="M464,280H0V16C0,7.2,7.2,0,16,0h432c8.8,0,16,7.2,16,16V280z"/>
<g>
	<path style="fill:#E6E6E6;" d="M464,280H0v48c0,8.8,7.2,16,16,16h432c8.8,0,16-7.2,16-16V280z"/>
	<path style="fill:#E6E6E6;" d="M356.4,440.8L356.4,440.8c-2.7-5.4-8.3-8.8-14.3-8.8H304l-16-88H176l-16,88h-38.1
		c-6.1,0-11.6,3.4-14.3,8.8l0,0c-5.3,10.6,2.4,23.2,14.3,23.2h220.2C354,464,361.7,451.5,356.4,440.8z"/>
</g>
<rect x="208" y="304" style="fill:#FFFFFF;" width="48" height="16"/>
<polygon style="fill:#D6D6D6;" points="288,344 176,344 173.1,360 290.9,360 "/>
<path style="fill:#FCB641;" d="M200,112h-80V72h64c8.8,0,16,7.2,16,16V112z"/>
<rect x="120" y="104" style="fill:#F5F5F5;" width="224" height="64"/>
<g>
	<path style="fill:#E65039;" d="M128,208h-16c-8.8,0-16-7.2-16-16V56c0-8.8,7.2-16,16-16h16V208z"/>
	<path style="fill:#E65039;" d="M352,208h-16V72h16c8.8,0,16,7.2,16,16v104C368,200.8,360.8,208,352,208z"/>
</g>
<g>
	<rect x="160" y="200" style="fill:#FFFFFF;" width="144" height="16"/>
	<rect x="224" y="232" style="fill:#FFFFFF;" width="80" height="16"/>
	<rect x="160" y="232" style="fill:#FFFFFF;" width="40" height="16"/>
</g>
<rect x="200" y="104" style="fill:#FCB641;" width="40" height="64"/>
<g>
</g>
<g>
</g>
<g>
</g>
<g>
</g>
<g>
</g>
<g>
</g>
<g>
</g>
<g>
</g>
<g>
</g>
<g>
</g>
<g>
</g>
<g>
</g>
<g>
</g>
<g>
</g>
<g>
</g>
</svg>
